# xmcd CD database file
# Copyright (C) 1993-1998 Ti Kan
#
# Track frame offsets:
#  150
#  22533
#  48677
#  72766
#  107753
#  139385
#  159463
#  185568
#  207531
#  227777
#  249201
#  282003
#
# Disc length: 4199 seconds
#
# Revision: 1
# Processed by: cddbd v1.4b41PL1 Copyright (c) Steve Scherf et al.
# Submitted via: CDWizzard Release:4.35
#
DISCID=a510650c
DTITLE=Varios - Siglo XXI - Disco 2
DYEAR=1900
DGENRE=
TTITLE0=Massive Attack- Risingson
TTITLE1=The futures Sound of London - My Kingdom
TTITLE2=ORB - Toxygene
TTITLE3=Madelman - Chao Amigo
TTITLE4=Photek - Modus Operandi
TTITLE5=Crustation- Purple
TTITLE6=Alpha - Hazeldub
TTITLE7=Air - Le Soleil Est Pres De Moi
TTITLE8=Smoke City - Devil Mood
TTITLE9=Hoover - 2 Wicky
TTITLE10=Gus Gus - Believe
TTITLE11=Sneaker Pimps - 6 Underground
EXTD=
EXTT0=
EXTT1=
EXTT2=
EXTT3=
EXTT4=
EXTT5=
EXTT6=
EXTT7=
EXTT8=
EXTT9=
EXTT10=
EXTT11=
PLAYORDER=
